# xmcd CD database file
# Copyright (C) 1993-1998 Ti Kan
#
# Track frame offsets:
#  150
#  12537
#  30140
#  44705
#  57092
#  68280
#  83670
#  96807
#  112122
#  124922
#
# Disc length: 1818 seconds
#
# Revision: 1
# Processed by: cddbd v1.4b41PL1 Copyright (c) Steve Scherf et al.
# Submitted via: CDWizzard Release:4.35
#
DISCID=7907180a
DTITLE=Ace In The Hole Band - Ace In The Hole Band
DYEAR=1900
DGENRE=
TTITLE0=Returning The Corn
TTITLE1=You're Something Special To Me
TTITLE2=Mirrors Don't Lie
TTITLE3=What Comes Natural To A Fool
TTITLE4=I'll Be Waiting Here 'Til Then
TTITLE5=Texas Bounce
TTITLE6=Back In The Swing Of Things
TTITLE7=The Difference Between Me And Him Is You
TTITLE8=My Shoes Keep Walking Back To You
TTITLE9=I'm Ragged But I'm ight
EXTD=
EXTT0=
EXTT1=
EXTT2=
EXTT3=
EXTT4=
EXTT5=
EXTT6=
EXTT7=
EXTT8=
EXTT9=
PLAYORDER=
